<?xml version="1.0" encoding="UTF-8"?>
<svg width="60px" height="18px" viewBox="0 0 60 18" version="1.1" xmlns="http://www.w3.org/2000/svg" xmlns:xlink="http://www.w3.org/1999/xlink">
    <!-- Generator: Sketch 48.2 (47327) - http://www.bohemiancoding.com/sketch -->
    <title>Group 4</title>
    <desc>Created with Sketch.</desc>
    <defs></defs>
    <g id="Artboard" stroke="none" stroke-width="1" fill="none" fill-rule="evenodd" transform="translate(-460.000000, -100.000000)">
        <g id="Group-4" transform="translate(460.000000, 100.000000)">
            <path d="M4,0 L56,0 C58.209139,-4.05812251e-16 60,1.790861 60,4 L60,14 C60,16.209139 58.209139,18 56,18 L4,18 C1.790861,18 2.705415e-16,16.209139 0,14 L0,4 C-2.705415e-16,1.790861 1.790861,4.05812251e-16 4,0 Z" id="Rectangle-39-Copy-2" fill="#827E93"></path>
            <path d="M15.5274526,4 L16.5605041,4 L16.5605041,5.87096774 L19.2507424,5.87096774 L19.2507424,6.86021505 L16.5605041,6.86021505 L16.5605041,8.60215054 L18.8095433,8.60215054 L18.8095433,13.9569892 L17.7764918,13.9569892 L17.7764918,13.5376344 L14.8710345,13.5376344 L14.8710345,13.9569892 L13.848744,13.9569892 L13.848744,8.60215054 L15.5274526,8.60215054 L15.5274526,4 Z M14.8710345,12.5376344 L17.7764918,12.5376344 L17.7764918,9.58064516 L14.8710345,9.58064516 L14.8710345,12.5376344 Z M10.6419799,4.04301075 L11.6212267,4.24731183 C11.535139,4.55913978 11.4490514,4.86021505 11.3629638,5.15053763 L13.2568915,5.15053763 L13.2568915,6.12903226 L11.0186133,6.12903226 C10.846438,6.55913978 10.6527409,6.95698925 10.4590437,7.33333333 L13.0631944,7.33333333 L13.0631944,8.24731183 L12.0193819,8.24731183 L12.0193819,9.34408602 L13.4505887,9.34408602 L13.4505887,10.2903226 L12.0193819,10.2903226 L12.0193819,12.516129 C12.4928639,12.344086 12.9663458,12.1182796 13.4398277,11.8387097 L13.601242,12.7419355 C12.8587363,13.1290323 11.99786,13.4516129 11.0186133,13.6989247 L10.5989361,12.827957 C10.8787209,12.7311828 11.0186133,12.5913978 11.0186133,12.4193548 L11.0186133,10.2903226 L9.59816747,10.2903226 L9.59816747,9.34408602 L11.0186133,9.34408602 L11.0186133,8.24731183 L10.405239,8.24731183 L10.405239,7.43010753 C10.2761075,7.64516129 10.157737,7.86021505 10.0286056,8.06451613 L9.20001221,7.53763441 C9.8671913,6.46236559 10.3514342,5.29032258 10.6419799,4.04301075 Z M20.2515111,4.55913978 L29.7641936,4.55913978 L29.7641936,5.5483871 L24.7711114,5.5483871 C24.4375218,6.50537634 24.0070837,7.39784946 23.4905579,8.21505376 L28.989405,8.21505376 L28.989405,13.827957 L27.9455925,13.827957 L27.9455925,13.311828 L23.705777,13.311828 L23.705777,13.827957 L22.6512036,13.827957 L22.6512036,9.37634409 C22.0485902,10.1075269 21.3598892,10.7741935 20.6066225,11.3655914 L19.9717263,10.344086 C21.6719569,9.09677419 22.8987055,7.49462366 23.6627332,5.5483871 L20.2515111,5.5483871 L20.2515111,4.55913978 Z M23.705777,12.3225806 L27.9455925,12.3225806 L27.9455925,9.20430108 L23.705777,9.20430108 L23.705777,12.3225806 Z M35.3814111,4 L36.1346778,4 C37.4905579,5.48387097 39.0401352,6.65591398 40.8049315,7.51612903 L40.2453619,8.50537634 C39.5997048,8.17204301 39.0078523,7.80645161 38.4482828,7.39784946 L38.4482828,8.20430108 L33.1000891,8.20430108 L33.1000891,7.35483871 C32.5189976,7.76344086 31.8948623,8.15053763 31.2276832,8.51612903 L30.6788746,7.52688172 C32.5620414,6.58064516 34.1331406,5.40860215 35.3814111,4 Z M33.2615034,7.23655914 L38.2330637,7.23655914 C37.3076217,6.5483871 36.4790283,5.77419355 35.7580445,4.91397849 C35.0585825,5.76344086 34.2299891,6.53763441 33.2615034,7.23655914 Z M31.4106194,9.39784946 L40.1269915,9.39784946 L40.1269915,10.3870968 L35.1123873,10.3870968 C34.6281444,11.2795699 34.0685749,12.0537634 33.4336786,12.7204301 C34.9832559,12.6344086 36.4682674,12.5053763 37.9102351,12.3333333 C37.5874065,11.9139785 37.2322951,11.4946237 36.8449008,11.0645161 L37.6412113,10.5591398 C38.620458,11.6236559 39.3737247,12.5483871 39.9117724,13.3333333 L39.0616571,13.9354839 C38.8787209,13.655914 38.6850237,13.3655914 38.4805656,13.0752688 C36.8126179,13.3333333 34.714232,13.5376344 32.196169,13.688172 L31.9163842,12.8064516 C32.1638862,12.7419355 32.3360614,12.6451613 32.4436709,12.5268817 C33.0247624,11.8494624 33.5197662,11.1397849 33.9286825,10.3870968 L31.4106194,10.3870968 L31.4106194,9.39784946 Z M50.2315264,7.87096774 L50.2315264,11.9462366 L49.2199968,11.9462366 L49.2199968,8.80645161 L43.8287593,8.80645161 L43.8287593,12.1075269 L42.8172297,12.1075269 L42.8172297,7.87096774 L50.2315264,7.87096774 Z M43.452126,4.34408602 L49.5966302,4.34408602 L49.5966302,7.21505376 L43.452126,7.21505376 L43.452126,4.34408602 Z M48.6066225,6.33333333 L48.6066225,5.24731183 L44.4421337,5.24731183 L44.4421337,6.33333333 L48.6066225,6.33333333 Z M46.0993204,9.3655914 L47.1323719,9.46236559 C46.9817186,11.0752688 46.648129,12.1505376 46.1316033,12.688172 C45.5935556,13.3548387 44.2807194,13.7956989 42.2038554,13.9892473 L41.8057001,13.0537634 C43.5382136,12.9677419 44.6896356,12.6451613 45.2492051,12.0860215 C45.733448,11.5591398 46.0132328,10.655914 46.0993204,9.3655914 Z M47.3691129,11.7956989 C48.7680368,12.172043 50.0378293,12.6236559 51.2000122,13.1505376 L50.6404426,14 C49.413694,13.3870968 48.1546625,12.9032258 46.8633481,12.5591398 L47.3691129,11.7956989 Z" id="钻石会员" fill="#FFFFFF"></path>
        </g>
    </g>
</svg>