<?xml version="1.0" encoding="UTF-8"?>
<svg width="60px" height="18px" viewBox="0 0 60 18" version="1.1" xmlns="http://www.w3.org/2000/svg" xmlns:xlink="http://www.w3.org/1999/xlink">
    <!-- Generator: Sketch 48.2 (47327) - http://www.bohemiancoding.com/sketch -->
    <title>黄金会员</title>
    <desc>Created with Sketch.</desc>
    <defs>
        <path d="M9.81686353,4.88172043 L11.9271444,4.88172043 L11.9271444,4.04301075 L12.9227641,4.04301075 L12.9227641,4.88172043 L15.0871547,4.88172043 L15.0871547,4.03225806 L16.0827744,4.03225806 L16.0827744,4.88172043 L18.2796309,4.88172043 L18.2796309,5.78494624 L16.0827744,5.78494624 L16.0827744,6.53763441 L18.8531944,6.53763441 L18.8531944,7.4516129 L14.5244131,7.4516129 L14.5244131,8.08602151 L17.6844234,8.08602151 L17.6844234,12.0215054 L15.487567,12.0215054 C16.7212696,12.311828 17.8467527,12.6666667 18.8640163,13.0967742 L18.3229187,13.9354839 C17.2082575,13.4193548 16.0719524,13.0215054 14.9140034,12.7204301 L15.3901694,12.0215054 L12.5331738,12.0215054 L13.0309836,12.6021505 C12.1002956,13.1397849 10.9639906,13.5913978 9.62206838,13.9462366 L9.20001221,13.0537634 C10.401249,12.7849462 11.4076906,12.4408602 12.2301591,12.0215054 L10.3687831,12.0215054 L10.3687831,8.08602151 L13.5287934,8.08602151 L13.5287934,7.4516129 L9.21083416,7.4516129 L9.21083416,6.53763441 L11.9271444,6.53763441 L11.9271444,5.78494624 L9.81686353,5.78494624 L9.81686353,4.88172043 Z M15.0871547,6.53763441 L15.0871547,5.78494624 L12.9227641,5.78494624 L12.9227641,6.53763441 L15.0871547,6.53763441 Z M16.6996257,11.1612903 L16.6996257,10.4516129 L14.5244131,10.4516129 L14.5244131,11.1612903 L16.6996257,11.1612903 Z M13.5287934,11.1612903 L13.5287934,10.4516129 L11.3535809,10.4516129 L11.3535809,11.1612903 L13.5287934,11.1612903 Z M11.3535809,9.62365591 L13.5287934,9.62365591 L13.5287934,8.93548387 L11.3535809,8.93548387 L11.3535809,9.62365591 Z M14.5244131,8.93548387 L14.5244131,9.62365591 L16.6996257,9.62365591 L16.6996257,8.93548387 L14.5244131,8.93548387 Z M21.9807388,7.25806452 C21.5045729,7.53763441 21.006763,7.79569892 20.4873093,8.03225806 L19.8921019,7.1827957 C21.7642998,6.3655914 23.2793732,5.32258065 24.4481441,4.05376344 L25.2706126,4.05376344 C26.2770542,5.30107527 27.7813057,6.33333333 29.794189,7.16129032 L29.2098035,8.01075269 C28.6903497,7.79569892 28.1925399,7.55913978 27.7380179,7.30107527 L27.7380179,7.86021505 L25.3680101,7.86021505 L25.3680101,9.16129032 L29.1340498,9.16129032 L29.1340498,10.1075269 L25.3680101,10.1075269 L25.3680101,12.7419355 L26.3852737,12.7419355 C26.7207543,12.0752688 27.012947,11.3548387 27.2726739,10.5913978 L28.2033619,10.9247312 C27.9652789,11.6021505 27.705552,12.2043011 27.4241812,12.7419355 L29.5128182,12.7419355 L29.5128182,13.7096774 L20.1951166,13.7096774 L20.1951166,12.7419355 L22.3162194,12.7419355 C22.1106023,12.1290323 21.8508754,11.5483871 21.5478607,11 L22.4677267,10.6666667 C22.7707414,11.2473118 23.0521122,11.9354839 23.3118391,12.7419355 L24.3507466,12.7419355 L24.3507466,10.1075269 L20.5738849,10.1075269 L20.5738849,9.16129032 L24.3507466,9.16129032 L24.3507466,7.86021505 L21.9807388,7.86021505 L21.9807388,7.25806452 Z M27.1428105,6.94623656 C26.2554103,6.38709677 25.4978736,5.74193548 24.8593783,5.01075269 C24.1451294,5.74193548 23.3551269,6.38709677 22.4893706,6.94623656 L27.1428105,6.94623656 Z M35.2917411,4 L36.0492779,4 C37.412844,5.48387097 38.9712052,6.65591398 40.7460055,7.51612903 L40.1832639,8.50537634 C39.5339468,8.17204301 38.9387393,7.80645161 38.3759978,7.39784946 L38.3759978,8.20430108 L32.9974871,8.20430108 L32.9974871,7.35483871 C32.4131016,7.76344086 31.7854283,8.15053763 31.1144672,8.51612903 L30.5625476,7.52688172 C32.4563894,6.58064516 34.0363946,5.40860215 35.2917411,4 Z M33.1598164,7.23655914 L38.1595587,7.23655914 C37.2288707,6.5483871 36.3955804,5.77419355 35.6705095,4.91397849 C34.9670825,5.76344086 34.1337922,6.53763441 33.1598164,7.23655914 Z M31.2984404,9.39784946 L40.0642225,9.39784946 L40.0642225,10.3870968 L35.0211923,10.3870968 C34.5342044,11.2795699 33.9714629,12.0537634 33.3329676,12.7204301 C34.8913289,12.6344086 36.3847584,12.5053763 37.8349001,12.3333333 C37.5102415,11.9139785 37.1531171,11.4946237 36.7635268,11.0645161 L37.5643513,10.5591398 C38.549149,11.6236559 39.3066857,12.5483871 39.8477834,13.3333333 L38.9928491,13.9354839 C38.8088759,13.655914 38.6140807,13.3655914 38.4084636,13.0752688 C36.7310609,13.3333333 34.6207801,13.5376344 32.088443,13.688172 L31.8070722,12.8064516 C32.0559772,12.7419355 32.2291284,12.6451613 32.3373479,12.5268817 C32.9217334,11.8494624 33.4195433,11.1397849 33.8307775,10.3870968 L31.2984404,10.3870968 L31.2984404,9.39784946 Z M50.2260364,7.87096774 L50.2260364,11.9462366 L49.2087728,11.9462366 L49.2087728,8.80645161 L43.7869743,8.80645161 L43.7869743,12.1075269 L42.7697107,12.1075269 L42.7697107,7.87096774 L50.2260364,7.87096774 Z M43.408206,4.34408602 L49.5875412,4.34408602 L49.5875412,7.21505376 L43.408206,7.21505376 L43.408206,4.34408602 Z M48.5919215,6.33333333 L48.5919215,5.24731183 L44.4038257,5.24731183 L44.4038257,6.33333333 L48.5919215,6.33333333 Z M46.0704064,9.3655914 L47.1093139,9.46236559 C46.9578066,11.0752688 46.622326,12.1505376 46.1028723,12.688172 C45.5617746,13.3548387 44.2414964,13.7956989 42.1528594,13.9892473 L41.7524471,13.0537634 C43.4947816,12.9677419 44.6527306,12.6451613 45.2154721,12.0860215 C45.70246,11.5591398 45.9838308,10.655914 46.0704064,9.3655914 Z M47.3473969,11.7956989 C48.7542508,12.172043 50.0312413,12.6236559 51.2000122,13.1505376 L50.6372706,14 C49.403568,13.3870968 48.1373995,12.9032258 46.8387651,12.5591398 L47.3473969,11.7956989 Z" id="path-1"></path>
        <filter x="-8.3%" y="-25.0%" width="116.7%" height="170.0%" filterUnits="objectBoundingBox" id="filter-2">
            <feOffset dx="0" dy="1" in="SourceAlpha" result="shadowOffsetOuter1"></feOffset>
            <feGaussianBlur stdDeviation="1" in="shadowOffsetOuter1" result="shadowBlurOuter1"></feGaussianBlur>
            <feColorMatrix values="0 0 0 0 0.792156863   0 0 0 0 0.647058824   0 0 0 0 0  0 0 0 0.4 0" type="matrix" in="shadowBlurOuter1"></feColorMatrix>
        </filter>
    </defs>
    <g id="Artboard" stroke="none" stroke-width="1" fill="none" fill-rule="evenodd" transform="translate(-370.000000, -100.000000)">
        <g id="黄金会员" transform="translate(370.000000, 100.000000)">
            <path d="M4,0 L56,0 C58.209139,-4.05812251e-16 60,1.790861 60,4 L60,14 C60,16.209139 58.209139,18 56,18 L4,18 C1.790861,18 2.705415e-16,16.209139 0,14 L0,4 C-2.705415e-16,1.790861 1.790861,4.05812251e-16 4,0 Z" id="Rectangle-39-Copy" fill="#E6B905"></path>
            <g>
                <use fill="black" fill-opacity="1" filter="url(#filter-2)" xlink:href="#path-1"></use>
                <use fill="#FFFFFF" fill-rule="evenodd" xlink:href="#path-1"></use>
            </g>
        </g>
    </g>
</svg>