<?xml version="1.0" encoding="UTF-8"?>
<svg width="60px" height="18px" viewBox="0 0 60 18" version="1.1" xmlns="http://www.w3.org/2000/svg" xmlns:xlink="http://www.w3.org/1999/xlink">
    <!-- Generator: Sketch 48.2 (47327) - http://www.bohemiancoding.com/sketch -->
    <title>普通会员</title>
    <desc>Created with Sketch.</desc>
    <defs>
        <path d="M12.2599278,6.09625668 L9.41155235,6.09625668 L9.41155235,5.14438503 L11.5776173,5.14438503 C11.4259928,4.82352941 11.2527076,4.52406417 11.0794224,4.26737968 L12.1624549,4.09625668 C12.3357401,4.40641711 12.5090253,4.75935829 12.6823105,5.14438503 L14.7617329,5.14438503 C15,4.78074866 15.2166065,4.39572193 15.400722,4 L16.3862816,4.34224599 C16.234657,4.63101604 16.0613718,4.89839572 15.8880866,5.14438503 L18.1841155,5.14438503 L18.1841155,6.09625668 L15.3249097,6.09625668 L15.3249097,7.94652406 L16.7111913,7.94652406 L15.9855596,7.57219251 C16.3537906,7.13368984 16.6462094,6.69518717 16.8628159,6.2459893 L17.6859206,6.63101604 C17.4693141,7.0802139 17.1768953,7.51871658 16.8303249,7.94652406 L18.5956679,7.94652406 L18.5956679,8.89839572 L9,8.89839572 L9,7.94652406 L10.732852,7.94652406 C10.5162455,7.42245989 10.2888087,6.96256684 10.0288809,6.55614973 L10.9277978,6.26737968 C11.1877256,6.69518717 11.4259928,7.14438503 11.631769,7.62566845 L10.8844765,7.94652406 L12.2599278,7.94652406 L12.2599278,6.09625668 Z M14.3393502,6.09625668 L13.2454874,6.09625668 L13.2454874,7.94652406 L14.3393502,7.94652406 L14.3393502,6.09625668 Z M17.2202166,9.48663102 L17.2202166,13.9358289 L16.234657,13.9358289 L16.234657,13.4759358 L11.3393502,13.4759358 L11.3393502,13.9358289 L10.3537906,13.9358289 L10.3537906,9.48663102 L17.2202166,9.48663102 Z M11.3393502,12.631016 L16.234657,12.631016 L16.234657,11.8930481 L11.3393502,11.8930481 L11.3393502,12.631016 Z M11.3393502,11.0909091 L16.234657,11.0909091 L16.234657,10.3208556 L11.3393502,10.3208556 L11.3393502,11.0909091 Z M20.6750903,4.18181818 C21.4115523,4.7486631 22.0288809,5.31550802 22.5270758,5.87165775 L21.801444,6.57754011 C21.368231,6.04278075 20.7617329,5.46524064 19.9711191,4.84491979 L20.6750903,4.18181818 Z M26.9025271,13.7647059 C26.3068592,13.7647059 25.6570397,13.7540107 24.9638989,13.7433155 C24.2599278,13.7326203 23.6859206,13.6684492 23.2310469,13.5614973 C22.7978339,13.4331551 22.4187726,13.1764706 22.0938628,12.8128342 C21.9422383,12.631016 21.8122744,12.5454545 21.6823105,12.5454545 C21.4548736,12.5454545 21.0649819,13.026738 20.5126354,13.9893048 L19.7545126,13.2941176 C20.2960289,12.4278075 20.7833935,11.8823529 21.2166065,11.6684492 L21.2166065,8.64171123 L19.765343,8.64171123 L19.765343,7.70053476 L22.1805054,7.70053476 L22.1805054,11.7433155 C22.234657,11.7860963 22.2888087,11.8395722 22.3429603,11.9037433 C22.5920578,12.1925134 22.8519856,12.4064171 23.1227437,12.5454545 C23.4476534,12.6951872 23.9241877,12.7914439 24.5631769,12.8128342 C25.1805054,12.8235294 25.9061372,12.8342246 26.7509025,12.8342246 C27.2815884,12.8342246 27.8231047,12.8235294 28.3646209,12.8128342 C28.9061372,12.802139 29.3285199,12.7807487 29.6209386,12.7593583 L29.3718412,13.7647059 L26.9025271,13.7647059 Z M25.0288809,5.24064171 L22.9386282,5.24064171 L22.9386282,4.39572193 L28.8844765,4.39572193 L28.8844765,5.11229947 C28.2563177,5.64705882 27.5848375,6.09625668 26.8700361,6.48128342 C26.8916968,6.5026738 26.9133574,6.51336898 26.9350181,6.53475936 L29.1119134,6.53475936 L29.1119134,11.2834225 C29.1119134,11.9144385 28.7545126,12.2352941 28.0505415,12.2352941 L27.2166065,12.2352941 L27,11.3903743 L27.7689531,11.4331551 C28.0072202,11.4331551 28.1371841,11.315508 28.1371841,11.0802139 L28.1371841,10.5347594 L26.5776173,10.5347594 L26.5776173,12.2887701 L25.6353791,12.2887701 L25.6353791,10.5347594 L24.1083032,10.5347594 L24.1083032,12.3101604 L23.133574,12.3101604 L23.133574,6.53475936 L25.6245487,6.53475936 C25.267148,6.29946524 24.866426,6.05347594 24.4223827,5.81818182 L25.0288809,5.24064171 Z M26.2418773,6 C26.6967509,5.77540107 27.1191336,5.51871658 27.5090253,5.24064171 L25.0830325,5.24064171 C25.4945848,5.4973262 25.8844765,5.74331551 26.2418773,6 Z M24.1083032,8.96256684 L24.1083032,9.71122995 L25.6353791,9.71122995 L25.6353791,8.96256684 L24.1083032,8.96256684 Z M26.5776173,8.96256684 L26.5776173,9.71122995 L28.1371841,9.71122995 L28.1371841,8.96256684 L26.5776173,8.96256684 Z M28.1371841,8.12834225 L28.1371841,7.37967914 L26.5776173,7.37967914 L26.5776173,8.12834225 L28.1371841,8.12834225 Z M25.6353791,8.12834225 L25.6353791,7.37967914 L24.1083032,7.37967914 L24.1083032,8.12834225 L25.6353791,8.12834225 Z M35.0794224,4.05347594 L35.8375451,4.05347594 C37.2021661,5.52941176 38.7617329,6.69518717 40.5379061,7.55080214 L39.9747292,8.53475936 C39.3249097,8.20320856 38.7292419,7.83957219 38.166065,7.43315508 L38.166065,8.23529412 L32.7833935,8.23529412 L32.7833935,7.39037433 C32.198556,7.79679144 31.5703971,8.18181818 30.898917,8.54545455 L30.3465704,7.56149733 C32.2418773,6.62032086 33.8231047,5.45454545 35.0794224,4.05347594 Z M32.9458484,7.27272727 L37.9494585,7.27272727 C37.0180505,6.58823529 36.1841155,5.81818182 35.4584838,4.96256684 C34.7545126,5.80748663 33.9205776,6.57754011 32.9458484,7.27272727 Z M31.0830325,9.42245989 L39.8555957,9.42245989 L39.8555957,10.4064171 L34.8086643,10.4064171 C34.3212996,11.2941176 33.7581227,12.0641711 33.1191336,12.7272727 C34.6787004,12.6417112 36.1732852,12.513369 37.6245487,12.342246 C37.299639,11.9251337 36.9422383,11.5080214 36.5523466,11.0802139 L37.3537906,10.5775401 C38.3393502,11.6363636 39.0974729,12.5561497 39.6389892,13.3368984 L38.7833935,13.9358289 C38.599278,13.657754 38.4043321,13.368984 38.198556,13.0802139 C36.5198556,13.3368984 34.4079422,13.540107 31.8736462,13.6898396 L31.5920578,12.8128342 C31.8411552,12.7486631 32.0144404,12.6524064 32.1227437,12.5347594 C32.7075812,11.8609626 33.2057762,11.1550802 33.6173285,10.4064171 L31.0830325,10.4064171 L31.0830325,9.42245989 Z M50.0252708,7.90374332 L50.0252708,11.9572193 L49.0072202,11.9572193 L49.0072202,8.8342246 L43.5812274,8.8342246 L43.5812274,12.1176471 L42.5631769,12.1176471 L42.5631769,7.90374332 L50.0252708,7.90374332 Z M43.2021661,4.39572193 L49.3862816,4.39572193 L49.3862816,7.2513369 L43.2021661,7.2513369 L43.2021661,4.39572193 Z M48.3898917,6.37433155 L48.3898917,5.29411765 L44.198556,5.29411765 L44.198556,6.37433155 L48.3898917,6.37433155 Z M45.866426,9.39037433 L46.9061372,9.48663102 C46.7545126,11.0909091 46.4187726,12.1604278 45.898917,12.6951872 C45.3574007,13.3582888 44.0361011,13.7967914 41.9458484,13.9893048 L41.5451264,13.0588235 C43.2888087,12.973262 44.4476534,12.6524064 45.0108303,12.0962567 C45.4981949,11.5721925 45.7797834,10.6737968 45.866426,9.39037433 Z M47.1444043,11.8074866 C48.5523466,12.1818182 49.8303249,12.631016 51,13.1550802 L50.4368231,14 C49.2021661,13.3903743 47.9350181,12.9090909 46.6353791,12.5668449 L47.1444043,11.8074866 Z" id="path-1"></path>
        <filter x="-8.3%" y="-25.0%" width="116.7%" height="170.0%" filterUnits="objectBoundingBox" id="filter-2">
            <feOffset dx="0" dy="1" in="SourceAlpha" result="shadowOffsetOuter1"></feOffset>
            <feGaussianBlur stdDeviation="1" in="shadowOffsetOuter1" result="shadowBlurOuter1"></feGaussianBlur>
            <feColorMatrix values="0 0 0 0 0.403921569   0 0 0 0 0.631372549   0 0 0 0 0.215686275  0 0 0 0.6 0" type="matrix" in="shadowBlurOuter1"></feColorMatrix>
        </filter>
    </defs>
    <g id="Artboard" stroke="none" stroke-width="1" fill="none" fill-rule="evenodd" transform="translate(-100.000000, -100.000000)">
        <g id="普通会员" transform="translate(100.000000, 100.000000)">
            <path d="M4,0 L56,0 C58.209139,-4.05812251e-16 60,1.790861 60,4 L60,14 C60,16.209139 58.209139,18 56,18 L4,18 C1.790861,18 2.705415e-16,16.209139 0,14 L0,4 C-2.705415e-16,1.790861 1.790861,4.05812251e-16 4,0 Z" id="Rectangle-39" fill="#91C369"></path>
            <g>
                <use fill="black" fill-opacity="1" filter="url(#filter-2)" xlink:href="#path-1"></use>
                <use fill="#FFFFFF" fill-rule="evenodd" xlink:href="#path-1"></use>
            </g>
        </g>
    </g>
</svg>