<?xml version="1.0" encoding="UTF-8"?>
<svg width="60px" height="20px" viewBox="0 0 60 20" version="1.1" xmlns="http://www.w3.org/2000/svg" xmlns:xlink="http://www.w3.org/1999/xlink">
    <!-- Generator: Sketch 48.2 (47327) - http://www.bohemiancoding.com/sketch -->
    <title>白云会员</title>
    <desc>Created with Sketch.</desc>
    <defs>
        <path d="M17.7698998,5.68454936 L17.7698998,13.9248927 L16.7432789,13.9248927 L16.7432789,13.1630901 L11.026621,13.1630901 L11.026621,13.9463519 L10,13.9463519 L10,5.68454936 L12.5935688,5.68454936 C12.8096995,5.14806867 12.9826041,4.57939914 13.0906695,4 L14.2253558,4.15021459 C14.1172905,4.69742489 13.9551924,5.21244635 13.7498682,5.68454936 L17.7698998,5.68454936 Z M11.026621,12.1759657 L16.7432789,12.1759657 L16.7432789,9.79399142 L11.026621,9.79399142 L11.026621,12.1759657 Z M11.026621,8.82832618 L16.7432789,8.82832618 L16.7432789,6.65021459 L11.026621,6.65021459 L11.026621,8.82832618 Z M21.055087,4.06437768 L22.0384818,4.26824034 C21.9520295,4.57939914 21.8763838,4.87982833 21.7899315,5.1695279 L23.7459146,5.1695279 L23.7459146,6.14592275 L21.4549288,6.14592275 C21.3036373,6.53218884 21.1307327,6.90772532 20.9578281,7.26180258 L23.5081708,7.26180258 L23.5081708,8.18454936 L22.4599367,8.18454936 L22.4599367,9.36480687 L23.8647865,9.36480687 L23.8647865,10.2982833 L22.4599367,10.2982833 L22.4599367,12.4978541 C22.827359,12.3690987 23.1839747,12.2188841 23.5513969,12.0364807 L23.7243015,12.8948498 C23.0759093,13.2167382 22.3194518,13.4849785 21.4549288,13.6995708 L21.0658935,12.8626609 C21.3468635,12.776824 21.498155,12.6480687 21.498155,12.4656652 L21.498155,10.2982833 L19.9960464,10.2982833 L19.9960464,9.36480687 L21.498155,9.36480687 L21.498155,8.18454936 L20.8821824,8.18454936 L20.8821824,7.41201717 C20.752504,7.64806867 20.6228255,7.87339056 20.4931471,8.08798283 L19.6610438,7.56223176 C20.309436,6.47854077 20.774117,5.30901288 21.055087,4.06437768 Z M25.2480232,7.25107296 L25.2480232,8.25965665 L28.00369,8.25965665 L28.00369,7.25107296 L25.2480232,7.25107296 Z M28.00369,6.36051502 L28.00369,5.31974249 L25.2480232,5.31974249 L25.2480232,6.36051502 L28.00369,6.36051502 Z M28.9438587,9.53648069 L29.6030575,10.1802575 C29.1491829,10.7381974 28.6412757,11.167382 28.0793358,11.4678112 C28.5007907,12.0579399 29.0411176,12.5622318 29.7003163,12.9914163 L29.1599895,13.860515 C27.5282024,12.7017167 26.5448076,11.1459227 26.2206115,9.17167382 L25.2480232,9.17167382 L25.2480232,12.5622318 C25.7991566,12.4120172 26.3394834,12.2081545 26.8798102,11.972103 L27.117554,12.8626609 C26.3394834,13.1738197 25.3777016,13.4742489 24.2214022,13.7639485 L23.9944649,12.916309 C24.1781761,12.8519313 24.2754349,12.7553648 24.2754349,12.6266094 L24.2754349,4.40772532 L28.9438587,4.40772532 L28.9438587,9.17167382 L27.117554,9.17167382 C27.2256194,9.72961373 27.3877174,10.2339056 27.6254613,10.7060086 C28.0793358,10.4377682 28.5224038,10.0515021 28.9438587,9.53648069 Z M35.1143911,4.02145923 L35.8708487,4.02145923 C37.2324723,5.50214592 38.7886136,6.67167382 40.5608856,7.53004292 L39.9989457,8.51716738 C39.3505535,8.18454936 38.756194,7.81974249 38.1942541,7.41201717 L38.1942541,8.2167382 L32.8234054,8.2167382 L32.8234054,7.36909871 C32.2398524,7.77682403 31.6130733,8.16309013 30.943068,8.527897 L30.3919346,7.54077253 C32.2830785,6.59656652 33.8608329,5.42703863 35.1143911,4.02145923 Z M32.9855034,7.25107296 L37.9781234,7.25107296 C37.0487612,6.56437768 36.2166579,5.79184549 35.4926199,4.93347639 C34.790195,5.78111588 33.9580917,6.55364807 32.9855034,7.25107296 Z M31.1267791,9.40772532 L39.8800738,9.40772532 L39.8800738,10.3948498 L34.8442277,10.3948498 C34.3579336,11.2854077 33.7959937,12.0579399 33.158408,12.723176 C34.7145493,12.6373391 36.2058513,12.5085837 37.6539273,12.3369099 C37.3297312,11.9184549 36.9731154,11.5 36.5840801,11.0708155 L37.3837638,10.5665236 C38.3671587,11.6287554 39.1236162,12.5515021 39.6639431,13.3347639 L38.8102267,13.9356223 C38.6265156,13.6566524 38.4319979,13.3669528 38.2266737,13.0772532 C36.5516605,13.3347639 34.4443859,13.5386266 31.9156563,13.6888412 L31.6346863,12.8090129 C31.8832367,12.7446352 32.0561413,12.6480687 32.1642066,12.5300429 C32.7477596,11.8540773 33.2448603,11.1459227 33.6555087,10.3948498 L31.1267791,10.3948498 L31.1267791,9.40772532 Z M50.0274117,7.88412017 L50.0274117,11.9506438 L49.0115973,11.9506438 L49.0115973,8.81759657 L43.5975224,8.81759657 L43.5975224,12.111588 L42.581708,12.111588 L42.581708,7.88412017 L50.0274117,7.88412017 Z M43.2192936,4.36480687 L49.389826,4.36480687 L49.389826,7.22961373 L43.2192936,7.22961373 L43.2192936,4.36480687 Z M48.3956247,6.34978541 L48.3956247,5.26609442 L44.213495,5.26609442 L44.213495,6.34978541 L48.3956247,6.34978541 Z M45.8777016,9.37553648 L46.9151292,9.472103 C46.7638376,11.0815451 46.428835,12.1545064 45.9101212,12.6909871 C45.3697944,13.3562232 44.0513969,13.7961373 41.9657354,13.9892704 L41.5658935,13.055794 C43.3057459,12.9699571 44.4620453,12.6480687 45.0239852,12.0901288 C45.5102794,11.5643777 45.7912493,10.6630901 45.8777016,9.37553648 Z M47.152873,11.8004292 C48.5577227,12.1759657 49.832894,12.6266094 51,13.1523605 L50.4380601,14 C49.2061149,13.388412 47.9417501,12.9055794 46.6449657,12.5622318 L47.152873,11.8004292 Z" id="path-1"></path>
        <filter x="-17.1%" y="-50.0%" width="134.1%" height="240.0%" filterUnits="objectBoundingBox" id="filter-2">
            <feOffset dx="0" dy="2" in="SourceAlpha" result="shadowOffsetOuter1"></feOffset>
            <feGaussianBlur stdDeviation="2" in="shadowOffsetOuter1" result="shadowBlurOuter1"></feGaussianBlur>
            <feColorMatrix values="0 0 0 0 0.325490196   0 0 0 0 0.411764706   0 0 0 0 0.349019608  0 0 0 0.16 0" type="matrix" in="shadowBlurOuter1"></feColorMatrix>
        </filter>
    </defs>
    <g id="Artboard" stroke="none" stroke-width="1" fill="none" fill-rule="evenodd" transform="translate(-280.000000, -100.000000)">
        <g id="白云会员" transform="translate(280.000000, 100.000000)">
            <g id="Group-6">
                <path d="M4,0 L56,0 C58.209139,-4.05812251e-16 60,1.790861 60,4 L60,14 C60,16.209139 58.209139,18 56,18 L4,18 C1.790861,18 2.705415e-16,16.209139 0,14 L0,4 C-2.705415e-16,1.790861 1.790861,4.05812251e-16 4,0 Z" id="Rectangle-39" fill="#BAC2C1"></path>
                <g id="白银会员">
                    <use fill="black" fill-opacity="1" filter="url(#filter-2)" xlink:href="#path-1"></use>
                    <use fill="#FFFFFF" fill-rule="evenodd" xlink:href="#path-1"></use>
                </g>
            </g>
        </g>
    </g>
</svg>