<?xml version="1.0" encoding="UTF-8"?>
<svg width="60px" height="18px" viewBox="0 0 60 18" version="1.1" xmlns="http://www.w3.org/2000/svg" xmlns:xlink="http://www.w3.org/1999/xlink">
    <!-- Generator: Sketch 48.2 (47327) - http://www.bohemiancoding.com/sketch -->
    <title>青铜会员</title>
    <desc>Created with Sketch.</desc>
    <defs>
        <path d="M9.47641145,4.6344086 L13.287703,4.6344086 L13.287703,4.02150538 L14.3271462,4.02150538 L14.3271462,4.6344086 L18.1600928,4.6344086 L18.1600928,5.47311828 L14.3271462,5.47311828 L14.3271462,6 L17.7486466,6 L17.7486466,6.80645161 L14.3271462,6.80645161 L14.3271462,7.3655914 L18.6148492,7.3655914 L18.6148492,8.21505376 L9,8.21505376 L9,7.3655914 L13.287703,7.3655914 L13.287703,6.80645161 L9.8878577,6.80645161 L9.8878577,6 L13.287703,6 L13.287703,5.47311828 L9.47641145,5.47311828 L9.47641145,4.6344086 Z M16.2652746,13.8817204 L15.0850735,13.8817204 L14.8360402,12.9784946 L15.9621036,13.0322581 C16.254447,13.0322581 16.4060325,12.8924731 16.4060325,12.6129032 L16.4060325,12.2473118 L11.2088167,12.2473118 L11.2088167,13.9462366 L10.2018561,13.9462366 L10.2018561,8.68817204 L17.412993,8.68817204 L17.412993,12.827957 C17.412993,13.5268817 17.0232019,13.8817204 16.2652746,13.8817204 Z M11.2088167,11.483871 L16.4060325,11.483871 L16.4060325,10.8924731 L11.2088167,10.8924731 L11.2088167,11.483871 Z M11.2088167,10.1182796 L16.4060325,10.1182796 L16.4060325,9.51612903 L11.2088167,9.51612903 L11.2088167,10.1182796 Z M25.1763341,8.07526882 L27.7424594,8.07526882 L27.7424594,11.8494624 L25.1763341,11.8494624 L25.1763341,8.07526882 Z M26.8654292,11.0215054 L26.8654292,8.90322581 L26.0533643,8.90322581 L26.0533643,11.0215054 L26.8654292,11.0215054 Z M28.262181,13.8924731 L27.1361176,13.8924731 L26.8762568,12.9139785 L27.937355,12.9677419 C28.1972158,12.9677419 28.3271462,12.827957 28.3271462,12.5591398 L28.3271462,5.32258065 L24.6133024,5.32258065 L24.6133024,13.9462366 L23.671307,13.9462366 L23.671307,4.38709677 L29.2907966,4.38709677 L29.2907966,12.7741935 C29.2907966,13.516129 28.9443155,13.8924731 28.262181,13.8924731 Z M25.0355762,6.2688172 L27.8832173,6.2688172 L27.8832173,7.19354839 L25.0355762,7.19354839 L25.0355762,6.2688172 Z M20.8020108,4.04301075 L21.7873163,4.24731183 C21.7115236,4.55913978 21.6357309,4.86021505 21.5599381,5.15053763 L23.2598608,5.15053763 L23.2598608,6.12903226 L21.2459397,6.12903226 C21.0943542,6.55913978 20.9211137,6.95698925 20.7478732,7.33333333 L23.0649652,7.33333333 L23.0649652,8.24731183 L22.16628,8.24731183 L22.16628,9.35483871 L23.3031709,9.35483871 L23.3031709,10.2903226 L22.16628,10.2903226 L22.16628,12.4946237 C22.5235886,12.3225806 22.8808971,12.1182796 23.2382057,11.8602151 L23.4222738,12.7526882 C22.8051044,13.1397849 22.0904872,13.4516129 21.2892498,13.7096774 L20.866976,12.8387097 C21.0835267,12.7419355 21.191802,12.6021505 21.191802,12.4193548 L21.191802,10.2903226 L19.9466357,10.2903226 L19.9466357,9.35483871 L21.191802,9.35483871 L21.191802,8.24731183 L20.682908,8.24731183 L20.682908,7.47311828 C20.5746326,7.68817204 20.4771848,7.88172043 20.3689095,8.06451613 L19.5568445,7.5483871 C20.1415313,6.46236559 20.5529776,5.29032258 20.8020108,4.04301075 Z M35.0835267,4 L35.841454,4 C37.2057231,5.48387097 38.7648879,6.65591398 40.5406032,7.51612903 L39.9775715,8.50537634 C39.3279196,8.17204301 38.7324053,7.80645161 38.1693735,7.39784946 L38.1693735,8.20430108 L32.7880897,8.20430108 L32.7880897,7.35483871 C32.2034029,7.76344086 31.575406,8.15053763 30.904099,8.51612903 L30.3518948,7.52688172 C32.2467131,6.58064516 33.8275329,5.40860215 35.0835267,4 Z M32.9505027,7.23655914 L37.9528229,7.23655914 C37.0216551,6.5483871 36.187935,5.77419355 35.4624903,4.91397849 C34.7587007,5.76344086 33.9249807,6.53763441 32.9505027,7.23655914 Z M31.0881671,9.39784946 L39.8584687,9.39784946 L39.8584687,10.3870968 L34.8128384,10.3870968 C34.3255994,11.2795699 33.7625677,12.0537634 33.1237432,12.7204301 C34.682908,12.6344086 36.1771075,12.5053763 37.6279969,12.3333333 C37.3031709,11.9139785 36.9458623,11.4946237 36.5560712,11.0645161 L37.3573086,10.5591398 C38.3426141,11.6236559 39.1005414,12.5483871 39.641918,13.3333333 L38.7865429,13.9354839 C38.6024749,13.655914 38.4075793,13.3655914 38.2018561,13.0752688 C36.5235886,13.3333333 34.4122196,13.5376344 31.878577,13.688172 L31.5970611,12.8064516 C31.8460944,12.7419355 32.0193349,12.6451613 32.1276102,12.5268817 C32.712297,11.8494624 33.2103635,11.1397849 33.6218097,10.3870968 L31.0881671,10.3870968 L31.0881671,9.39784946 Z M50.025522,7.87096774 L50.025522,11.9462366 L49.007734,11.9462366 L49.007734,8.80645161 L43.58314,8.80645161 L43.58314,12.1075269 L42.5653519,12.1075269 L42.5653519,7.87096774 L50.025522,7.87096774 Z M43.2041763,4.34408602 L49.3866976,4.34408602 L49.3866976,7.21505376 L43.2041763,7.21505376 L43.2041763,4.34408602 Z M48.3905646,6.33333333 L48.3905646,5.24731183 L44.2003094,5.24731183 L44.2003094,6.33333333 L48.3905646,6.33333333 Z M45.8677494,9.3655914 L46.9071926,9.46236559 C46.7556071,11.0752688 46.4199536,12.1505376 45.900232,12.688172 C45.3588554,13.3548387 44.0378964,13.7956989 41.9481825,13.9892473 L41.5475638,13.0537634 C43.2907966,12.9677419 44.4493426,12.6451613 45.0123743,12.0860215 C45.4996133,11.5591398 45.7811292,10.655914 45.8677494,9.3655914 Z M47.1453983,11.7956989 C48.5529776,12.172043 49.8306265,12.6236559 51,13.1505376 L50.4369683,14 C49.2026295,13.3870968 47.9358082,12.9032258 46.6365043,12.5591398 L47.1453983,11.7956989 Z" id="path-1"></path>
        <filter x="-8.3%" y="-25.0%" width="116.7%" height="170.0%" filterUnits="objectBoundingBox" id="filter-2">
            <feOffset dx="0" dy="1" in="SourceAlpha" result="shadowOffsetOuter1"></feOffset>
            <feGaussianBlur stdDeviation="1" in="shadowOffsetOuter1" result="shadowBlurOuter1"></feGaussianBlur>
            <feColorMatrix values="0 0 0 0 0.796078431   0 0 0 0 0.541176471   0 0 0 0 0.196078431  0 0 0 0.8 0" type="matrix" in="shadowBlurOuter1"></feColorMatrix>
        </filter>
    </defs>
    <g id="Artboard" stroke="none" stroke-width="1" fill="none" fill-rule="evenodd" transform="translate(-190.000000, -100.000000)">
        <g id="青铜会员" transform="translate(190.000000, 100.000000)">
            <path d="M4,0 L56,0 C58.209139,-4.05812251e-16 60,1.790861 60,4 L60,14 C60,16.209139 58.209139,18 56,18 L4,18 C1.790861,18 2.705415e-16,16.209139 0,14 L0,4 C-2.705415e-16,1.790861 1.790861,4.05812251e-16 4,0 Z" id="Rectangle-39" fill="#E7A751"></path>
            <g>
                <use fill="black" fill-opacity="1" filter="url(#filter-2)" xlink:href="#path-1"></use>
                <use fill="#FFFFFF" fill-rule="evenodd" xlink:href="#path-1"></use>
            </g>
        </g>
    </g>
</svg>