<?xml version="1.0" encoding="UTF-8"?>
<svg width="30px" height="12px" viewBox="0 0 30 12" version="1.1" xmlns="http://www.w3.org/2000/svg" xmlns:xlink="http://www.w3.org/1999/xlink">
    <!-- Generator: Sketch 48.2 (47327) - http://www.bohemiancoding.com/sketch -->
    <title>二级菜单箭头</title>
    <desc>Created with Sketch.</desc>
    <defs></defs>
    <g id="5-二级菜单-AITS-Copy" stroke="none" stroke-width="1" fill="none" fill-rule="evenodd" transform="translate(-516.000000, -52.000000)">
        <g id="二级菜单箭头" transform="translate(516.000000, 52.000000)">
            <path d="M0,9 L0,8 L4.1862915,8 C6.04280693,8 7.82328432,7.26250212 9.13603897,5.94974747 L13.3786797,1.70710678 C14.5502525,0.535533906 16.4497475,0.535533906 17.6213203,1.70710678 L21.863961,5.94974747 C23.1767157,7.26250212 24.9571931,8 26.8137085,8 L30,8 L30,9 L26.8137085,9 C24.6919766,9 22.6571453,8.15714528 21.1568542,6.65685425 L16.9142136,2.41421356 C16.133165,1.63316498 14.866835,1.63316498 14.0857864,2.41421356 L9.84314575,6.65685425 C8.34285472,8.15714528 6.30802342,9 4.1862915,9 L0,9 Z" id="Combined-Shape" fill="#EEEEEE" fill-rule="nonzero"></path>
            <path d="M0,9 L0,12 L30,12 L30,9 L26.8137085,9 C24.6919766,9 22.6571453,8.15714528 21.1568542,6.65685425 L16.9142136,2.41421356 C16.133165,1.63316498 14.866835,1.63316498 14.0857864,2.41421356 L9.84314575,6.65685425 C8.34285472,8.15714528 6.30802342,9 4.1862915,9 L0,9 Z" id="Path" fill="#FFFFFF"></path>
        </g>
    </g>
</svg>